<svg xmlns="http://www.w3.org/2000/svg" viewBox="0 0 360 70"><defs><style>.cls-1{fill:#46505a}</style></defs><g id="Logo"><path d="M54.8 3.4c-1.6 0-3.6.8-5.2 2.4C44 11.4 44 23 44 23s11.6 0 17.2-5.6c1.6-1.6 2.4-3.2 2.8-4.8a30.8 30.8 0 0 0-9.2-9.2z" class="cls-1"/><path d="M63 4c-3 3-4 8-4 14 0 20 20 40 20 40s20-20 20-40c0-6-1-11-4-14a80 80 0 0 0-32 0zm32 154c3-4 4-8 4-14 0-20-20-40-20-40s-21 20-21 40c0 6 2 10 5 14a80 80 0 0 0 32 0zm61-93c-4-3-8-5-14-5-20 0-40 21-40 21s20 20 40 20c6 0 10-1 14-4a80 80 0 0 0 0-32zM2 97c4 3 8 4 14 4 20 0 40-20 40-20S36 60 16 60c-6 0-10 2-14 4a80 80 0 0 0 0 33zm143 27c-1-4-3-9-7-13-14-14-43-14-43-14s0 29 14 43c4 4 9 6 13 7a80 80 0 0 0 23-23zM13 38c1 4 3 8 7 13 14 14 43 14 43 14s0-29-14-43c-4-4-9-6-13-7a77 77 0 0 0-23 23zm23 109c4-1 9-3 13-7 14-14 14-43 14-43s-29 0-43 14c-4 4-6 9-7 12a80 80 0 0 0 23 24z" style="fill:#f98422" transform="matrix(.4 0 0 .4 0 3)"/></g><path id="Text" d="M0 12.07h10.88l9.24 22.52h.42l9.24-22.52h10.88v36.37H32.1V26.1h-.3l-8.74 22.11H17.6L8.86 25.98h-.3v22.46H0V12.07Zm54.03 36.37h-9.45l12.27-36.37h11.7l12.27 36.37h-9.44l-8.54-27.2h-.29l-8.52 27.2m-1.26-14.31h19.74v6.67H52.77v-6.67Zm31.98 14.31V12.07h15.02q4.08 0 7.06 1.47 2.97 1.46 4.59 4.19 1.61 2.72 1.61 6.45 0 3.79-1.65 6.42-1.65 2.64-4.69 4.01-3.03 1.38-7.19 1.38H90v-6.92h7.87q1.99 0 3.33-.53 1.34-.52 2.03-1.6.69-1.07.69-2.76 0-1.68-.69-2.79t-2.04-1.67q-1.35-.56-3.32-.56h-4.33v29.28h-8.79m20.47-16.62 9.06 16.62h-9.59l-8.88-16.62h9.41Zm21.41-19.75v36.37h-8.79V12.07h8.79ZM156 23.95q-.3-1.12-.89-1.98-.58-.86-1.43-1.46-.86-.61-1.96-.92-1.1-.31-2.41-.31-2.65 0-4.57 1.28-1.93 1.28-2.98 3.72-1.05 2.44-1.05 5.92 0 3.5 1.02 5.97 1.01 2.47 2.93 3.76 1.91 1.3 4.65 1.3 2.41 0 4.09-.79 1.68-.79 2.55-2.25.87-1.45.87-3.42l1.63.19h-8.84v-6.41h15.68v4.81q0 4.89-2.07 8.37-2.07 3.48-5.68 5.34-3.62 1.86-8.3 1.86-5.21 0-9.15-2.25-3.94-2.26-6.14-6.44-2.2-4.18-2.2-9.93 0-4.48 1.33-7.95 1.33-3.47 3.72-5.88 2.39-2.42 5.54-3.66 3.15-1.24 6.79-1.24 3.16 0 5.89.9 2.72.91 4.83 2.56 2.1 1.65 3.41 3.92 1.32 2.28 1.64 4.99H156Zm48.79 6.31q0 6-2.3 10.17-2.31 4.17-6.25 6.34-3.93 2.16-8.81 2.16-4.9 0-8.83-2.18-3.92-2.18-6.22-6.35-2.3-4.16-2.3-10.14 0-6.01 2.3-10.18t6.22-6.34q3.93-2.16 8.83-2.16 4.88 0 8.81 2.16 3.94 2.17 6.25 6.34 2.3 4.17 2.3 10.18m-8.98 0q0-3.56-1-6.01-1.01-2.45-2.88-3.71-1.87-1.26-4.5-1.26-2.61 0-4.49 1.26-1.89 1.26-2.89 3.71-1 2.45-1 6.01 0 3.55 1 6t2.89 3.71q1.88 1.26 4.49 1.26 2.63 0 4.5-1.26t2.88-3.71q1-2.45 1-6Zm14.1 18.18V12.07h8.79V41.3h15.12v7.14h-23.91Zm41.9 0h-13.44V12.07h13.42q5.56 0 9.58 2.18 4.02 2.17 6.21 6.25 2.18 4.07 2.18 9.74 0 5.68-2.17 9.76-2.18 4.09-6.21 6.26-4.03 2.18-9.57 2.18m-4.65-7.5h4.31q3.06 0 5.18-1.03 2.12-1.04 3.21-3.4 1.1-2.35 1.1-6.27 0-3.93-1.11-6.26-1.1-2.34-3.24-3.37-2.14-1.04-5.26-1.04h-4.19v21.37Z" class="cls-1" transform="translate(84 5)"/></svg>